<svg xmlns="http://www.w3.org/2000/svg" viewBox="0 0 756 380"><defs><style type="text/css">/* cyrillic */
@font-face {
  font-family: 'Geist';
  font-style: normal;
  font-weight: 400;
  font-display: swap;
  src: url(https://fonts.gstatic.com/s/geist/v3/gyByhwUxId8gMEwYGFWNOITddY4.woff2) format('woff2');
  unicode-range: U+0301, U+0400-045F, U+0490-0491, U+04B0-04B1, U+2116;
}
/* latin-ext */
@font-face {
  font-family: 'Geist';
  font-style: normal;
  font-weight: 400;
  font-display: swap;
  src: url(https://fonts.gstatic.com/s/geist/v3/gyByhwUxId8gMEwSGFWNOITddY4.woff2) format('woff2');
  unicode-range: U+0100-02BA, U+02BD-02C5, U+02C7-02CC, U+02CE-02D7, U+02DD-02FF, U+0304, U+0308, U+0329, U+1D00-1DBF, U+1E00-1E9F, U+1EF2-1EFF, U+2020, U+20A0-20AB, U+20AD-20C0, U+2113, U+2C60-2C7F, U+A720-A7FF;
}
/* latin */
@font-face {
  font-family: 'Geist';
  font-style: normal;
  font-weight: 400;
  font-display: swap;
  src: url(https://fonts.gstatic.com/s/geist/v3/gyByhwUxId8gMEwcGFWNOITd.woff2) format('woff2');
  unicode-range: U+0000-00FF, U+0131, U+0152-0153, U+02BB-02BC, U+02C6, U+02DA, U+02DC, U+0304, U+0308, U+0329, U+2000-206F, U+20AC, U+2122, U+2191, U+2193, U+2212, U+2215, U+FEFF, U+FFFD;
}
/* cyrillic */
@font-face {
  font-family: 'Geist';
  font-style: normal;
  font-weight: 700;
  font-display: swap;
  src: url(https://fonts.gstatic.com/s/geist/v3/gyByhwUxId8gMEwYGFWNOITddY4.woff2) format('woff2');
  unicode-range: U+0301, U+0400-045F, U+0490-0491, U+04B0-04B1, U+2116;
}
/* latin-ext */
@font-face {
  font-family: 'Geist';
  font-style: normal;
  font-weight: 700;
  font-display: swap;
  src: url(https://fonts.gstatic.com/s/geist/v3/gyByhwUxId8gMEwSGFWNOITddY4.woff2) format('woff2');
  unicode-range: U+0100-02BA, U+02BD-02C5, U+02C7-02CC, U+02CE-02D7, U+02DD-02FF, U+0304, U+0308, U+0329, U+1D00-1DBF, U+1E00-1E9F, U+1EF2-1EFF, U+2020, U+20A0-20AB, U+20AD-20C0, U+2113, U+2C60-2C7F, U+A720-A7FF;
}
/* latin */
@font-face {
  font-family: 'Geist';
  font-style: normal;
  font-weight: 700;
  font-display: swap;
  src: url(https://fonts.gstatic.com/s/geist/v3/gyByhwUxId8gMEwcGFWNOITd.woff2) format('woff2');
  unicode-range: U+0000-00FF, U+0131, U+0152-0153, U+02BB-02BC, U+02C6, U+02DA, U+02DC, U+0304, U+0308, U+0329, U+2000-206F, U+20AC, U+2122, U+2191, U+2193, U+2212, U+2215, U+FEFF, U+FFFD;
}

    svg, svg * {
      font-family: 'Geist', sans-serif !important;
    }
    </style></defs><style>:root { --color-border: oklch(1 0 0 / 10%); --color-foreground: oklch(1 0 0); --color-green-600: oklch(62.7% 0.194 149.214); --color-green-100: oklch(96.2% 0.044 156.743); --color-green-500: oklch(72.3% 0.219 149.579); --color-purple-600: oklch(55.8% 0.288 302.321); --color-purple-100: oklch(94.6% 0.033 307.174); --color-purple-500: oklch(62.7% 0.265 303.9); --color-cyan-600: oklch(60.9% 0.126 221.723); --color-cyan-100: oklch(95.6% 0.045 203.388); --color-cyan-500: oklch(71.5% 0.143 215.221); }</style><g id="grid-lines-horizontal"><line x1="0" x2="756" y1="55" y2="55" stroke="var(--color-border)" stroke-width="1"/><line x1="0" x2="756" y1="136.25" y2="136.25" stroke="var(--color-border)" stroke-width="1"/><line x1="0" x2="756" y1="217.5" y2="217.5" stroke="var(--color-border)" stroke-width="1"/><line x1="0" x2="756" y1="298.75" y2="298.75" stroke="var(--color-border)" stroke-width="1"/></g><g id="border-lines"><line x1="0" x2="756" y1="0" y2="0" stroke="var(--color-border)" stroke-width="1"/><line x1="0" x2="756" y1="380" y2="380" stroke="var(--color-border)" stroke-width="1"/><line x1="0" x2="0" y1="0" y2="380" stroke="var(--color-border)" stroke-width="1"/><line x1="756" x2="756" y1="0" y2="380" stroke="var(--color-border)" stroke-width="1"/></g><g transform="translate(0, 0)"><g id="header"><g transform="translate(85.2, 19.642857142857142)"><svg stroke="currentColor" fill="none" stroke-width="2" viewBox="0 0 24 24" stroke-linecap="round" stroke-linejoin="round" x="0" y="-9" color="var(--color-foreground)" style="color:var(--color-foreground)" height="1em" width="1em" xmlns="http://www.w3.org/2000/svg"><path d="M5 21c.5 -4.5 2.5 -8 7 -10"/><path d="M9 18c6.218 0 10.5 -3.288 11 -12v-2h-4.014c-9 0 -11.986 4 -12 9c0 1 0 3 2 5h3z"/></svg><text x="24" y="0" text-anchor="start" dominant-baseline="middle" fill="var(--color-foreground)" font-size="12" font-weight="600">Fresh Data</text></g><g transform="translate(54, 35.357142857142854)"><text x="0" y="0" text-anchor="start" dominant-baseline="middle" fill="var(--color-foreground)" font-size="10">Fetched directly on the client</text></g></g><g><g><line x1="126" x2="126" y1="118.125" y2="316.875" stroke="var(--color-green-600)" stroke-width="2"/><g transform="translate(117, 208.5)"><circle cx="9" cy="9" r="9" fill="var(--color-green-600)"/><svg xmlns="http://www.w3.org/2000/svg" width="18" height="18" viewBox="0 0 24 24" fill="none" stroke="var(--color-green-100)" stroke-width="2" stroke-linecap="round" stroke-linejoin="round" class="lucide lucide-chevron-down" aria-hidden="true" x="0" y="0"><path d="m6 9 6 6 6-6"/></svg></g></g></g><g><g><rect x="46" y="73.125" width="160" height="45" fill="var(--color-green-500)" fill-opacity="0.4" stroke="var(--color-green-500)" stroke-width="1.5" rx="8" ry="8"/><g transform="translate(105.36, 89.125)"><svg stroke="currentColor" fill="none" stroke-width="1.5" viewBox="0 0 24 24" aria-hidden="true" x="0" y="-10.5" color="var(--color-foreground)" style="color:var(--color-foreground)" height="18" width="18" xmlns="http://www.w3.org/2000/svg"><path stroke-linecap="round" stroke-linejoin="round" d="M14.25 9.75 16.5 12l-2.25 2.25m-4.5 0L7.5 12l2.25-2.25M6 20.25h12A2.25 2.25 0 0 0 20.25 18V6A2.25 2.25 0 0 0 18 3.75H6A2.25 2.25 0 0 0 3.75 6v12A2.25 2.25 0 0 0 6 20.25Z"/></svg><text x="24" y="0" text-anchor="start" dominant-baseline="middle" fill="var(--color-foreground)" font-size="12">API</text></g><g transform="translate(104.4, 105.375)"><text x="0" y="0" text-anchor="start" dominant-baseline="middle" fill="var(--color-foreground)" font-size="10">Singapore</text></g></g><g><rect x="46" y="316.875" width="160" height="45" fill="transparent" fill-opacity="0.4" stroke="var(--color-border)" stroke-width="1.5" stroke-dasharray="10 5" rx="8" ry="8"/><g transform="translate(93.84, 332.875)"><svg stroke="currentColor" fill="currentColor" stroke-width="0" viewBox="0 0 16 16" x="0" y="-9" color="var(--color-foreground)" style="color:var(--color-foreground)" height="15" width="15" xmlns="http://www.w3.org/2000/svg"><path fill-rule="evenodd" clip-rule="evenodd" d="M1.5 1h13l.5.5v12l-.5.5h-13l-.5-.5v-12l.5-.5zM2 5v8h12V5H2zm0-1h12V2H2v2z"/></svg><text x="24" y="0" text-anchor="start" dominant-baseline="middle" fill="var(--color-foreground)" font-size="12">Browser</text></g><g transform="translate(94.8, 349.125)"><text x="0" y="0" text-anchor="start" dominant-baseline="middle" fill="var(--color-foreground)" font-size="10">San Francisco</text></g></g></g></g><g transform="translate(252, 0)"><g id="header"><g transform="translate(82.32, 19.642857142857142)"><svg stroke="currentColor" fill="none" stroke-width="2" viewBox="0 0 24 24" stroke-linecap="round" stroke-linejoin="round" x="0" y="-9" color="var(--color-foreground)" style="color:var(--color-foreground)" height="1em" width="1em" xmlns="http://www.w3.org/2000/svg"><path d="M12 6m-8 0a8 3 0 1 0 16 0a8 3 0 1 0 -16 0"/><path d="M4 6v6a8 3 0 0 0 16 0v-6"/><path d="M4 12v6a8 3 0 0 0 16 0v-6"/></svg><text x="24" y="0" text-anchor="start" dominant-baseline="middle" fill="var(--color-foreground)" font-size="12" font-weight="600">Cached Data</text></g><g transform="translate(70.80000000000001, 35.357142857142854)"><text x="0" y="0" text-anchor="start" dominant-baseline="middle" fill="var(--color-foreground)" font-size="10">Fetched from the server</text></g></g><g><g><line x1="126" x2="126" y1="280.625" y2="316.875" stroke="var(--color-purple-600)" stroke-width="2"/><g transform="translate(117, 289.75)"><circle cx="9" cy="9" r="9" fill="var(--color-purple-600)"/><svg xmlns="http://www.w3.org/2000/svg" width="18" height="18" viewBox="0 0 24 24" fill="none" stroke="var(--color-purple-100)" stroke-width="2" stroke-linecap="round" stroke-linejoin="round" class="lucide lucide-chevron-down" aria-hidden="true" x="0" y="0"><path d="m6 9 6 6 6-6"/></svg></g></g></g><g><g><rect x="46" y="73.125" width="160" height="45" fill="transparent" fill-opacity="0.4" stroke="var(--color-border)" stroke-width="1.5" stroke-dasharray="10 5" rx="8" ry="8"/><g transform="translate(105.36, 89.125)"><svg stroke="currentColor" fill="none" stroke-width="1.5" viewBox="0 0 24 24" aria-hidden="true" x="0" y="-10.5" color="var(--color-foreground)" style="color:var(--color-foreground)" height="18" width="18" xmlns="http://www.w3.org/2000/svg"><path stroke-linecap="round" stroke-linejoin="round" d="M14.25 9.75 16.5 12l-2.25 2.25m-4.5 0L7.5 12l2.25-2.25M6 20.25h12A2.25 2.25 0 0 0 20.25 18V6A2.25 2.25 0 0 0 18 3.75H6A2.25 2.25 0 0 0 3.75 6v12A2.25 2.25 0 0 0 6 20.25Z"/></svg><text x="24" y="0" text-anchor="start" dominant-baseline="middle" fill="var(--color-foreground)" font-size="12">API</text></g><g transform="translate(104.4, 105.375)"><text x="0" y="0" text-anchor="start" dominant-baseline="middle" fill="var(--color-foreground)" font-size="10">Singapore</text></g></g><g><rect x="46" y="235.625" width="160" height="45" fill="var(--color-purple-500)" fill-opacity="0.4" stroke="var(--color-purple-500)" stroke-width="1.5" rx="8" ry="8"/><g transform="translate(96.72, 251.625)"><svg stroke="currentColor" fill="currentColor" stroke-width="0" role="img" viewBox="0 0 24 24" x="3" y="-8.25" color="var(--color-foreground)" style="color:var(--color-foreground)" height="13" width="13" xmlns="http://www.w3.org/2000/svg"><path d="M24 22.525H0l12-21.05 12 21.05z"/></svg><text x="24" y="0" text-anchor="start" dominant-baseline="middle" fill="var(--color-foreground)" font-size="12">Server</text></g><g transform="translate(94.8, 267.875)"><text x="0" y="0" text-anchor="start" dominant-baseline="middle" fill="var(--color-foreground)" font-size="10">San Francisco</text></g></g><g><rect x="46" y="316.875" width="160" height="45" fill="transparent" fill-opacity="0.4" stroke="var(--color-border)" stroke-width="1.5" stroke-dasharray="10 5" rx="8" ry="8"/><g transform="translate(93.84, 332.875)"><svg stroke="currentColor" fill="currentColor" stroke-width="0" viewBox="0 0 16 16" x="0" y="-9" color="var(--color-foreground)" style="color:var(--color-foreground)" height="15" width="15" xmlns="http://www.w3.org/2000/svg"><path fill-rule="evenodd" clip-rule="evenodd" d="M1.5 1h13l.5.5v12l-.5.5h-13l-.5-.5v-12l.5-.5zM2 5v8h12V5H2zm0-1h12V2H2v2z"/></svg><text x="24" y="0" text-anchor="start" dominant-baseline="middle" fill="var(--color-foreground)" font-size="12">Browser</text></g><g transform="translate(94.8, 349.125)"><text x="0" y="0" text-anchor="start" dominant-baseline="middle" fill="var(--color-foreground)" font-size="10">San Francisco</text></g></g></g></g><g transform="translate(504, 0)"><g id="header"><g transform="translate(105.36, 19.642857142857142)"><svg stroke="currentColor" fill="currentColor" stroke-width="0" viewBox="0 0 24 24" x="0" y="-9" color="var(--color-foreground)" style="color:var(--color-foreground)" height="1em" width="1em" xmlns="http://www.w3.org/2000/svg"><path d="M7 21.5C4.51472 21.5 2.5 19.4853 2.5 17C2.5 14.5147 4.51472 12.5 7 12.5C9.48528 12.5 11.5 14.5147 11.5 17C11.5 19.4853 9.48528 21.5 7 21.5ZM17 11.5C14.5147 11.5 12.5 9.48528 12.5 7C12.5 4.51472 14.5147 2.5 17 2.5C19.4853 2.5 21.5 4.51472 21.5 7C21.5 9.48528 19.4853 11.5 17 11.5ZM7 19.5C8.38071 19.5 9.5 18.3807 9.5 17C9.5 15.6193 8.38071 14.5 7 14.5C5.61929 14.5 4.5 15.6193 4.5 17C4.5 18.3807 5.61929 19.5 7 19.5ZM17 9.5C18.3807 9.5 19.5 8.38071 19.5 7C19.5 5.61929 18.3807 4.5 17 4.5C15.6193 4.5 14.5 5.61929 14.5 7C14.5 8.38071 15.6193 9.5 17 9.5ZM3 8C3 5.23858 5.23858 3 8 3H11V5H8C6.34315 5 5 6.34315 5 8V11H3V8ZM21 13H19V16C19 17.6569 17.6569 19 16 19H13V21H16C18.7614 21 21 18.7614 21 16V13Z"/></svg><text x="24" y="0" text-anchor="start" dominant-baseline="middle" fill="var(--color-foreground)" font-size="12" font-weight="600">SWR</text></g><g transform="translate(22.799999999999997, 35.357142857142854)"><text x="0" y="0" text-anchor="start" dominant-baseline="middle" fill="var(--color-foreground)" font-size="10">Fetched from the server, while revalidating</text></g></g><g><g><line x1="62" x2="62" y1="280.625" y2="316.875" stroke="var(--color-purple-600)" stroke-width="2"/><g transform="translate(53, 289.75)"><circle cx="9" cy="9" r="9" fill="var(--color-purple-600)"/><svg xmlns="http://www.w3.org/2000/svg" width="18" height="18" viewBox="0 0 24 24" fill="none" stroke="var(--color-purple-100)" stroke-width="2" stroke-linecap="round" stroke-linejoin="round" class="lucide lucide-chevron-down" aria-hidden="true" x="0" y="0"><path d="m6 9 6 6 6-6"/></svg></g></g><g><line x1="62" x2="62" y1="118.125" y2="235.625" stroke="var(--color-cyan-600)" stroke-width="2"/><g transform="translate(53, 167.875)"><circle cx="9" cy="9" r="9" fill="var(--color-cyan-600)"/><svg xmlns="http://www.w3.org/2000/svg" width="18" height="18" viewBox="0 0 24 24" fill="none" stroke="var(--color-cyan-100)" stroke-width="2" stroke-linecap="round" stroke-linejoin="round" class="lucide lucide-chevron-up" aria-hidden="true" x="0" y="0"><path d="m18 15-6-6-6 6"/></svg></g></g><g><line x1="190" x2="190" y1="118.125" y2="235.625" stroke="var(--color-cyan-600)" stroke-width="2"/><g transform="translate(181, 167.875)"><circle cx="9" cy="9" r="9" fill="var(--color-cyan-600)"/><svg xmlns="http://www.w3.org/2000/svg" width="18" height="18" viewBox="0 0 24 24" fill="none" stroke="var(--color-cyan-100)" stroke-width="2" stroke-linecap="round" stroke-linejoin="round" class="lucide lucide-chevron-down" aria-hidden="true" x="0" y="0"><path d="m6 9 6 6 6-6"/></svg></g></g><g><line x1="190" x2="190" y1="235.625" y2="316.875" stroke="var(--color-purple-600)" stroke-width="2"/></g></g><g><g><rect x="46" y="73.125" width="160" height="45" fill="var(--color-cyan-500)" fill-opacity="0.4" stroke="var(--color-cyan-500)" stroke-width="1.5" rx="8" ry="8"/><g transform="translate(105.36, 89.125)"><svg stroke="currentColor" fill="none" stroke-width="1.5" viewBox="0 0 24 24" aria-hidden="true" x="0" y="-10.5" color="var(--color-foreground)" style="color:var(--color-foreground)" height="18" width="18" xmlns="http://www.w3.org/2000/svg"><path stroke-linecap="round" stroke-linejoin="round" d="M14.25 9.75 16.5 12l-2.25 2.25m-4.5 0L7.5 12l2.25-2.25M6 20.25h12A2.25 2.25 0 0 0 20.25 18V6A2.25 2.25 0 0 0 18 3.75H6A2.25 2.25 0 0 0 3.75 6v12A2.25 2.25 0 0 0 6 20.25Z"/></svg><text x="24" y="0" text-anchor="start" dominant-baseline="middle" fill="var(--color-foreground)" font-size="12">API</text></g><g transform="translate(104.4, 105.375)"><text x="0" y="0" text-anchor="start" dominant-baseline="middle" fill="var(--color-foreground)" font-size="10">Singapore</text></g></g><g><rect x="46" y="235.625" width="160" height="45" fill="var(--color-purple-500)" fill-opacity="0.4" stroke="var(--color-purple-500)" stroke-width="1.5" stroke-dasharray="10 5" rx="8" ry="8"/><g transform="translate(96.72, 251.625)"><svg stroke="currentColor" fill="currentColor" stroke-width="0" role="img" viewBox="0 0 24 24" x="3" y="-8.25" color="var(--color-foreground)" style="color:var(--color-foreground)" height="13" width="13" xmlns="http://www.w3.org/2000/svg"><path d="M24 22.525H0l12-21.05 12 21.05z"/></svg><text x="24" y="0" text-anchor="start" dominant-baseline="middle" fill="var(--color-foreground)" font-size="12">Server</text></g><g transform="translate(94.8, 267.875)"><text x="0" y="0" text-anchor="start" dominant-baseline="middle" fill="var(--color-foreground)" font-size="10">San Francisco</text></g></g><g><rect x="46" y="316.875" width="160" height="45" fill="transparent" fill-opacity="0.4" stroke="var(--color-border)" stroke-width="1.5" stroke-dasharray="10 5" rx="8" ry="8"/><g transform="translate(93.84, 332.875)"><svg stroke="currentColor" fill="currentColor" stroke-width="0" viewBox="0 0 16 16" x="0" y="-9" color="var(--color-foreground)" style="color:var(--color-foreground)" height="15" width="15" xmlns="http://www.w3.org/2000/svg"><path fill-rule="evenodd" clip-rule="evenodd" d="M1.5 1h13l.5.5v12l-.5.5h-13l-.5-.5v-12l.5-.5zM2 5v8h12V5H2zm0-1h12V2H2v2z"/></svg><text x="24" y="0" text-anchor="start" dominant-baseline="middle" fill="var(--color-foreground)" font-size="12">Browser</text></g><g transform="translate(94.8, 349.125)"><text x="0" y="0" text-anchor="start" dominant-baseline="middle" fill="var(--color-foreground)" font-size="10">San Francisco</text></g></g></g></g></svg>